<svg width="163" height="26" viewBox="0 0 163 26" fill="none" xmlns="http://www.w3.org/2000/svg">
<path d="M4.732 26H1.56V6.5H4.732V8.151C5.15667 7.56167 5.67667 7.085 6.292 6.721C6.916 6.34833 7.644 6.162 8.476 6.162C9.42933 6.162 10.3177 6.33967 11.141 6.695C11.9643 7.05033 12.688 7.54433 13.312 8.177C13.9447 8.801 14.4343 9.52467 14.781 10.348C15.1363 11.1713 15.314 12.0553 15.314 13C15.314 13.9447 15.1363 14.833 14.781 15.665C14.4343 16.497 13.9447 17.2293 13.312 17.862C12.688 18.486 11.9643 18.9757 11.141 19.331C10.3177 19.6863 9.42933 19.864 8.476 19.864C7.644 19.864 6.916 19.682 6.292 19.318C5.67667 18.9453 5.15667 18.4643 4.732 17.875V26ZM8.437 9.217C7.77833 9.217 7.189 9.39033 6.669 9.737C6.149 10.075 5.74167 10.53 5.447 11.102C5.15233 11.674 5.005 12.3067 5.005 13C5.005 13.6933 5.15233 14.3303 5.447 14.911C5.74167 15.483 6.149 15.9423 6.669 16.289C7.189 16.627 7.77833 16.796 8.437 16.796C9.10433 16.796 9.71533 16.627 10.27 16.289C10.8247 15.951 11.2667 15.496 11.596 14.924C11.9253 14.3433 12.09 13.702 12.09 13C12.09 12.3067 11.9253 11.674 11.596 11.102C11.2667 10.53 10.8247 10.075 10.27 9.737C9.724 9.39033 9.113 9.217 8.437 9.217ZM22.3438 19.838C21.1478 19.838 20.0558 19.5303 19.0678 18.915C18.0884 18.2997 17.3041 17.4763 16.7148 16.445C16.1341 15.405 15.8438 14.2567 15.8438 13C15.8438 12.0467 16.0128 11.1583 16.3508 10.335C16.6888 9.503 17.1524 8.775 17.7418 8.151C18.3398 7.51833 19.0331 7.02433 19.8218 6.669C20.6104 6.31367 21.4511 6.136 22.3438 6.136C23.5398 6.136 24.6274 6.44367 25.6068 7.059C26.5948 7.67433 27.3791 8.502 27.9598 9.542C28.5491 10.582 28.8438 11.7347 28.8438 13C28.8438 13.9447 28.6748 14.8287 28.3368 15.652C27.9988 16.4753 27.5308 17.2033 26.9328 17.836C26.3434 18.46 25.6544 18.9497 24.8658 19.305C24.0858 19.6603 23.2451 19.838 22.3438 19.838ZM22.3438 16.666C22.9764 16.666 23.5441 16.497 24.0468 16.159C24.5494 15.821 24.9438 15.3747 25.2298 14.82C25.5244 14.2653 25.6718 13.6587 25.6718 13C25.6718 12.324 25.5201 11.7087 25.2168 11.154C24.9221 10.5907 24.5191 10.1443 24.0078 9.815C23.5051 9.477 22.9504 9.308 22.3438 9.308C21.7198 9.308 21.1564 9.477 20.6538 9.815C20.1511 10.153 19.7524 10.6037 19.4578 11.167C19.1631 11.7303 19.0158 12.3413 19.0158 13C19.0158 13.6847 19.1674 14.3043 19.4708 14.859C19.7741 15.4137 20.1771 15.8557 20.6798 16.185C21.1911 16.5057 21.7458 16.666 22.3438 16.666ZM30.1009 19.5L30.0879 6.5H33.2599L33.2729 7.657C33.7149 7.189 34.2436 6.82067 34.8589 6.552C35.4742 6.27467 36.1372 6.136 36.8479 6.136C37.3246 6.136 37.8012 6.20533 38.2779 6.344L37.0299 9.542C36.7006 9.412 36.3712 9.347 36.0419 9.347C35.5306 9.347 35.0626 9.47267 34.6379 9.724C34.2219 9.96667 33.8882 10.3003 33.6369 10.725C33.3942 11.141 33.2729 11.6047 33.2729 12.116V19.5H30.1009ZM46.2798 9.672H43.7578V19.5H40.5858V9.672H38.6618V6.5H40.5858V2.418H43.7578V6.5H46.2798V9.672ZM57.3475 6.5H60.5195V19.5H57.3475L57.2045 17.888C56.8491 18.4687 56.3768 18.941 55.7875 19.305C55.2068 19.6603 54.5178 19.838 53.7205 19.838C52.7585 19.838 51.8571 19.656 51.0165 19.292C50.1758 18.928 49.4348 18.4253 48.7935 17.784C48.1608 17.1427 47.6625 16.4017 47.2985 15.561C46.9431 14.7203 46.7655 13.819 46.7655 12.857C46.7655 11.9297 46.9345 11.0587 47.2725 10.244C47.6191 9.42933 48.1001 8.71433 48.7155 8.099C49.3308 7.48367 50.0415 7.00267 50.8475 6.656C51.6535 6.30933 52.5201 6.136 53.4475 6.136C54.3055 6.136 55.0725 6.32667 55.7485 6.708C56.4331 7.08933 57.0138 7.57467 57.4905 8.164L57.3475 6.5ZM53.6425 16.783C54.3185 16.783 54.9165 16.614 55.4365 16.276C55.9565 15.938 56.3638 15.483 56.6585 14.911C56.9531 14.3303 57.1005 13.6933 57.1005 13C57.1005 12.298 56.9531 11.661 56.6585 11.089C56.3638 10.5083 55.9521 10.049 55.4235 9.711C54.9035 9.373 54.3098 9.204 53.6425 9.204C52.9751 9.204 52.3641 9.37733 51.8095 9.724C51.2635 10.062 50.8258 10.517 50.4965 11.089C50.1758 11.661 50.0155 12.298 50.0155 13C50.0155 13.702 50.1801 14.339 50.5095 14.911C50.8388 15.483 51.2765 15.938 51.8225 16.276C52.3771 16.614 52.9838 16.783 53.6425 16.783ZM62.4061 19.5V-1.54972e-06H65.5781V19.5H62.4061Z" fill="black"/>
<path d="M83 10.5H81.14C80.8122 10.4993 80.4932 10.606 80.2318 10.8037C79.9704 11.0015 79.781 11.2794 79.6925 11.595L77.93 17.865C77.9186 17.9039 77.895 17.9382 77.8625 17.9625C77.83 17.9868 77.7906 18 77.75 18C77.7094 18 77.67 17.9868 77.6375 17.9625C77.605 17.9382 77.5814 17.9039 77.57 17.865L73.43 3.135C73.4186 3.09605 73.395 3.06184 73.3625 3.0375C73.33 3.01316 73.2906 3 73.25 3C73.2094 3 73.17 3.01316 73.1375 3.0375C73.105 3.06184 73.0814 3.09605 73.07 3.135L71.3075 9.405C71.2193 9.71937 71.031 9.99639 70.7711 10.194C70.5113 10.3916 70.194 10.4991 69.8675 10.5H68" stroke="#006EFF" stroke-width="1.5" stroke-linecap="round" stroke-linejoin="round"/>
<path d="M84.56 19.5V6.5H87.732V7.657C88.174 7.189 88.7027 6.82067 89.318 6.552C89.9333 6.27467 90.5963 6.136 91.307 6.136C92.2083 6.136 93.036 6.34833 93.79 6.773C94.5527 7.19767 95.1593 7.76533 95.61 8.476C96.0693 7.76533 96.676 7.19767 97.43 6.773C98.184 6.34833 99.0117 6.136 99.913 6.136C100.866 6.136 101.729 6.37 102.5 6.838C103.28 7.29733 103.9 7.917 104.359 8.697C104.827 9.46833 105.061 10.3307 105.061 11.284V19.5H101.889V12.129C101.889 11.6263 101.763 11.167 101.512 10.751C101.269 10.3263 100.94 9.98833 100.524 9.737C100.117 9.477 99.6573 9.347 99.146 9.347C98.6347 9.347 98.171 9.47267 97.755 9.724C97.3477 9.96667 97.0183 10.296 96.767 10.712C96.5157 11.128 96.39 11.6003 96.39 12.129V19.5H93.218V12.129C93.218 11.6003 93.0967 11.128 92.854 10.712C92.6113 10.296 92.282 9.96667 91.866 9.724C91.45 9.47267 90.9863 9.347 90.475 9.347C89.9723 9.347 89.513 9.477 89.097 9.737C88.681 9.98833 88.3473 10.3263 88.096 10.751C87.8533 11.167 87.732 11.6263 87.732 12.129V19.5H84.56ZM116.434 6.5H119.606V19.5H116.434L116.291 17.888C115.935 18.4687 115.463 18.941 114.874 19.305C114.293 19.6603 113.604 19.838 112.807 19.838C111.845 19.838 110.943 19.656 110.103 19.292C109.262 18.928 108.521 18.4253 107.88 17.784C107.247 17.1427 106.749 16.4017 106.385 15.561C106.029 14.7203 105.852 13.819 105.852 12.857C105.852 11.9297 106.021 11.0587 106.359 10.244C106.705 9.42933 107.186 8.71433 107.802 8.099C108.417 7.48367 109.128 7.00267 109.934 6.656C110.74 6.30933 111.606 6.136 112.534 6.136C113.392 6.136 114.159 6.32667 114.835 6.708C115.519 7.08933 116.1 7.57467 116.577 8.164L116.434 6.5ZM112.729 16.783C113.405 16.783 114.003 16.614 114.523 16.276C115.043 15.938 115.45 15.483 115.745 14.911C116.039 14.3303 116.187 13.6933 116.187 13C116.187 12.298 116.039 11.661 115.745 11.089C115.45 10.5083 115.038 10.049 114.51 9.711C113.99 9.373 113.396 9.204 112.729 9.204C112.061 9.204 111.45 9.37733 110.896 9.724C110.35 10.062 109.912 10.517 109.583 11.089C109.262 11.661 109.102 12.298 109.102 13C109.102 13.702 109.266 14.339 109.596 14.911C109.925 15.483 110.363 15.938 110.909 16.276C111.463 16.614 112.07 16.783 112.729 16.783ZM125.251 19.734C124.575 19.6907 123.921 19.5563 123.288 19.331C122.664 19.097 122.109 18.7807 121.624 18.382C121.139 17.9833 120.766 17.5067 120.506 16.952L123.184 15.808C123.288 15.9813 123.457 16.1677 123.691 16.367C123.925 16.5577 124.202 16.718 124.523 16.848C124.852 16.978 125.212 17.043 125.602 17.043C125.931 17.043 126.243 16.9997 126.538 16.913C126.841 16.8177 127.084 16.6747 127.266 16.484C127.457 16.2933 127.552 16.0463 127.552 15.743C127.552 15.4223 127.439 15.1753 127.214 15.002C126.997 14.82 126.72 14.6857 126.382 14.599C126.053 14.5037 125.732 14.417 125.42 14.339C124.597 14.1743 123.83 13.9187 123.119 13.572C122.417 13.2253 121.849 12.779 121.416 12.233C120.991 11.6783 120.779 11.011 120.779 10.231C120.779 9.373 121.004 8.632 121.455 8.008C121.914 7.384 122.508 6.903 123.236 6.565C123.973 6.227 124.766 6.058 125.615 6.058C126.646 6.058 127.591 6.27467 128.449 6.708C129.316 7.13267 130 7.735 130.503 8.515L127.994 9.997C127.873 9.789 127.704 9.59833 127.487 9.425C127.27 9.243 127.023 9.09567 126.746 8.983C126.469 8.86167 126.178 8.79233 125.875 8.775C125.485 8.75767 125.13 8.79233 124.809 8.879C124.488 8.96567 124.228 9.113 124.029 9.321C123.838 9.529 123.743 9.80633 123.743 10.153C123.743 10.4823 123.873 10.7293 124.133 10.894C124.393 11.05 124.705 11.1713 125.069 11.258C125.442 11.3447 125.797 11.44 126.135 11.544C126.898 11.7953 127.613 12.103 128.28 12.467C128.956 12.831 129.498 13.2773 129.905 13.806C130.312 14.3347 130.507 14.9673 130.49 15.704C130.49 16.5447 130.239 17.2813 129.736 17.914C129.233 18.538 128.583 19.0147 127.786 19.344C126.997 19.6733 126.152 19.8033 125.251 19.734ZM138.903 9.672H136.381V19.5H133.209V9.672H131.285V6.5H133.209V2.418H136.381V6.5H138.903V9.672ZM145.889 19.838C144.693 19.838 143.601 19.5303 142.613 18.915C141.633 18.2997 140.849 17.472 140.26 16.432C139.679 15.392 139.389 14.2437 139.389 12.987C139.389 12.0423 139.558 11.1583 139.896 10.335C140.234 9.503 140.697 8.775 141.287 8.151C141.885 7.51833 142.578 7.02433 143.367 6.669C144.155 6.31367 144.996 6.136 145.889 6.136C146.903 6.136 147.83 6.35267 148.671 6.786C149.52 7.21067 150.239 7.79567 150.829 8.541C151.418 9.28633 151.847 10.1357 152.116 11.089C152.384 12.0423 152.445 13.039 152.298 14.079H142.795C142.916 14.5643 143.115 15.002 143.393 15.392C143.67 15.7733 144.021 16.081 144.446 16.315C144.87 16.5403 145.351 16.6573 145.889 16.666C146.443 16.6747 146.946 16.5447 147.397 16.276C147.856 15.9987 148.237 15.626 148.541 15.158L151.778 15.912C151.249 17.0647 150.46 18.0093 149.412 18.746C148.363 19.474 147.189 19.838 145.889 19.838ZM142.691 11.7H149.087C148.991 11.18 148.788 10.712 148.476 10.296C148.172 9.87133 147.795 9.53333 147.345 9.282C146.894 9.03067 146.409 8.905 145.889 8.905C145.369 8.905 144.888 9.03067 144.446 9.282C144.004 9.52467 143.627 9.85833 143.315 10.283C143.011 10.699 142.803 11.1713 142.691 11.7ZM153.646 19.5L153.633 6.5H156.805L156.818 7.657C157.26 7.189 157.788 6.82067 158.404 6.552C159.019 6.27467 159.682 6.136 160.393 6.136C160.869 6.136 161.346 6.20533 161.823 6.344L160.575 9.542C160.245 9.412 159.916 9.347 159.587 9.347C159.075 9.347 158.607 9.47267 158.183 9.724C157.767 9.96667 157.433 10.3003 157.182 10.725C156.939 11.141 156.818 11.6047 156.818 12.116V19.5H153.646Z" fill="black"/>
</svg>
